<?xml version="1.0" encoding="utf-8"?>
<svg version="1.0" xmlns="http://www.w3.org/2000/svg" width="649px" height="433px" viewBox="0 0 649 433" preserveAspectRatio="xMidYMid meet">
 <g fill="#ffffff">
  <path d="M30.94 324.60 c-6.24 -2.13 -10.09 -5.56 -12.95 -11.54 l-1.61 -3.38 -0.16 -88.93 c-0.16 -99.38 -0.42 -92.36 3.54 -98.44 3.07 -4.78 7.49 -7.75 13.62 -9.20 2.81 -0.62 11.49 -0.78 57.88 -0.78 58.76 0 57.46 -0.05 62.77 2.65 5.30 2.70 10.04 9.10 11.34 15.18 0.36 1.87 0.52 29.17 0.42 90.85 l-0.16 88.15 -1.20 3.02 c-2.44 5.98 -7.23 10.50 -13.05 12.32 -3.17 0.99 -4.89 1.04 -60.58 1.04 -52.94 -0.05 -57.46 -0.10 -59.86 -0.94z m64.22 -27.25 c1.25 -0.68 2.76 -1.87 3.33 -2.65 1.09 -1.46 1.09 -1.61 1.09 -75.25 l0 -73.79 -1.09 -1.46 c-4 -5.36 -12.74 -4.47 -14.98 1.51 -0.78 2.03 -0.83 8.74 -0.73 74.52 0.16 71.45 0.16 72.28 1.20 74.10 1.20 2.08 4.84 4.16 7.28 4.16 0.88 0 2.65 -0.52 3.90 -1.14z"/>
  <path d="M174.83 219.09 l0.16 -106.50 59.28 -0.16 c61.42 -0.16 62.77 -0.10 69.27 2.03 9.62 3.17 17.47 12.17 19.66 22.57 1.14 5.56 1.14 66.15 -0.05 71.92 -2.24 10.97 -9.88 20.18 -20.02 24.13 -1.66 0.68 -3.07 1.35 -3.07 1.51 0 0.52 21.37 56.22 30.06 78.21 l2.44 6.24 0.26 -103.23 0.26 -103.23 31.98 0 31.98 0 0.16 45.14 0.10 45.14 5.82 -0.16 5.82 -0.16 2.76 -7.28 c1.46 -4 5.67 -15.24 9.26 -24.96 3.64 -9.72 9.72 -26.11 13.62 -36.40 3.85 -10.30 7.28 -19.35 7.54 -20.13 l0.52 -1.46 28.29 0 c21.01 0 28.29 0.16 28.29 0.62 0 0.31 -2.39 6.34 -5.25 13.36 -6.71 16.23 -13 31.72 -26.05 64.02 -8.89 22 -10.30 25.95 -9.88 27.04 0.26 0.73 2.70 6.71 5.46 13.26 11.65 28.29 22.26 54.19 28.71 69.94 8.01 19.45 8.53 20.80 8.74 20.80 0.05 0 0.05 -41.97 -0.05 -93.19 -0.10 -67.71 0 -94.23 0.47 -96.78 1.14 -6.92 5.41 -13.16 10.97 -16.02 5.56 -2.86 3.22 -2.76 59.60 -2.91 29.95 -0.10 54.03 0 56.42 0.26 6.50 0.78 9.93 2.29 13.78 6.14 3.33 3.33 4.89 6.08 6.14 10.87 0.57 2.13 0.73 20.39 0.73 99.22 l0 96.57 -32.50 0 -32.50 0 0 -27.56 0 -27.56 -8.58 0 -8.58 0 0 27.56 0 27.56 -63.29 -0.10 -63.34 -0.16 -15.60 -46.54 c-8.58 -25.64 -15.76 -46.96 -15.96 -47.48 -0.36 -0.83 -1.04 -0.88 -5.72 -0.78 l-5.36 0.16 -0.16 47.48 -0.10 47.43 -62.25 -0.10 -62.20 -0.16 -1.51 -4.68 c-1.61 -5.10 -5.51 -18.10 -13.47 -44.72 -2.86 -9.41 -5.67 -18.88 -6.29 -20.91 l-1.14 -3.80 -5.10 0 -5.10 0 0 37.18 0 37.18 -32.76 0 -32.76 0 0.10 -106.45z m409.16 -23.30 c0 -53.46 0.16 -50.96 -3.17 -53.36 -1.46 -1.04 -2.39 -1.25 -5.25 -1.25 -3.90 0 -5.67 0.94 -7.44 3.95 -1.04 1.72 -1.04 2.86 -1.20 49.87 -0.05 26.42 0 48.36 0.10 48.73 0.21 0.52 2.34 0.68 8.63 0.68 l8.32 0 0 -48.62z m-330.79 27.61 c2.44 -1.30 4.63 -4.21 4.99 -6.66 0.16 -1.25 0.26 -17.68 0.16 -36.56 -0.16 -36.56 -0.05 -35.26 -2.70 -38.12 -1.87 -2.08 -4.16 -2.70 -9.98 -2.70 l-5.41 0 0 42.38 0 42.38 5.72 0 c4 0 6.24 -0.21 7.23 -0.73z"/>
 </g>
</svg>
